<svg width="1600" height="430" viewBox="0 0 1600 430" fill="none" xmlns="http://www.w3.org/2000/svg" role="img" aria-labelledby="title desc">
  <title id="title">Web Design</title>
  <desc id="desc">A simplified black-and-white mirrored cymatics pattern for the Web Design workflow.</desc>
  <defs>
    <filter id="lineGlow" x="-18%" y="-28%" width="136%" height="156%">
      <feGaussianBlur stdDeviation="2.2" result="blur"/>
      <feColorMatrix in="blur" type="matrix" values="1 0 0 0 0.14  0 1 0 0 0.14  0 0 1 0 0.14  0 0 0 0.75 0" result="mist"/>
      <feMerge>
        <feMergeNode in="mist"/>
        <feMergeNode in="SourceGraphic"/>
      </feMerge>
    </filter>
    <filter id="textHalo" x="-20%" y="-80%" width="140%" height="260%">
      <feGaussianBlur in="SourceAlpha" stdDeviation="5" result="shadow"/>
      <feOffset in="shadow" dx="0" dy="2" result="offset"/>
      <feFlood flood-color="#05070A" flood-opacity="0.95" result="color"/>
      <feComposite in="color" in2="offset" operator="in" result="halo"/>
      <feMerge>
        <feMergeNode in="halo"/>
        <feMergeNode in="SourceGraphic"/>
      </feMerge>
    </filter>
    <linearGradient id="edgeWhite" x1="0" y1="0" x2="1" y2="1">
      <stop offset="0" stop-color="#FFFFFF" stop-opacity="0.95"/>
      <stop offset="0.42" stop-color="#DDE4EA" stop-opacity="0.78"/>
      <stop offset="1" stop-color="#AEB9C2" stop-opacity="0.58"/>
    </linearGradient>
    <linearGradient id="edgeFadeGradient" x1="-800" y1="0" x2="800" y2="0" gradientUnits="userSpaceOnUse">
      <stop offset="0" stop-color="black"/>
      <stop offset="0.5" stop-color="white"/>
      <stop offset="1" stop-color="black"/>
    </linearGradient>
    <mask id="edgeFade" maskUnits="userSpaceOnUse" x="-800" y="-215" width="1600" height="430">
      <rect x="-800" y="-215" width="1600" height="430" fill="url(#edgeFadeGradient)"/>
    </mask>
  </defs>

  <g transform="translate(800 215)" filter="url(#lineGlow)" mask="url(#edgeFade)" stroke-linecap="round" stroke-linejoin="round">
    <g stroke="url(#edgeWhite)">
      <path d="M-760 -182C-676 -214 -592 -198 -520 -138C-468 -94 -446 -38 -390 -24C-322 -8 -292 -108 -224 -96C-155 -84 -146 -18 -82 -28C-36 -36 -27 -78 0 -78C27 -78 36 -36 82 -28C146 -18 155 -84 224 -96C292 -108 322 -8 390 -24C446 -38 468 -94 520 -138C592 -198 676 -214 760 -182" stroke-width="7" opacity="0.94"/>
      <path d="M-760 182C-676 214 -592 198 -520 138C-468 94 -446 38 -390 24C-322 8 -292 108 -224 96C-155 84 -146 18 -82 28C-36 36 -27 78 0 78C27 78 36 36 82 28C146 18 155 84 224 96C292 108 322 8 390 24C446 38 468 94 520 138C592 198 676 214 760 182" stroke-width="7" opacity="0.94"/>

      <path d="M-610 -168C-542 -112 -510 -52 -516 12C-520 70 -562 124 -640 178" stroke-width="3.4" opacity="0.66"/>
      <path d="M610 -168C542 -112 510 -52 516 12C520 70 562 124 640 178" stroke-width="3.4" opacity="0.66"/>
    </g>

    <g stroke="#EEF3F6" opacity="0.78">
      <path d="M-690 -126C-606 -162 -550 -142 -510 -88C-470 -34 -420 -16 -360 -48C-304 -78 -268 -55 -246 -12C-224 31 -176 41 -132 8C-86 -27 -50 -22 0 30C50 -22 86 -27 132 8C176 41 224 31 246 -12C268 -55 304 -78 360 -48C420 -16 470 -34 510 -88C550 -142 606 -162 690 -126" stroke-width="3"/>
      <path d="M-690 126C-606 162 -550 142 -510 88C-470 34 -420 16 -360 48C-304 78 -268 55 -246 12C-224 -31 -176 -41 -132 -8C-86 27 -50 22 0 -30C50 22 86 27 132 -8C176 -41 224 -31 246 12C268 55 304 78 360 48C420 16 470 34 510 88C550 142 606 162 690 126" stroke-width="3"/>

      <path d="M-548 -146C-498 -104 -468 -58 -468 -8C-468 44 -504 98 -570 150" stroke-width="2.4" opacity="0.78"/>
      <path d="M548 -146C498 -104 468 -58 468 -8C468 44 504 98 570 150" stroke-width="2.4" opacity="0.78"/>
      <path d="M-438 -112C-382 -132 -334 -112 -302 -66C-270 -18 -218 -12 -178 26C-138 64 -92 58 -48 12" stroke-width="2.2" opacity="0.72"/>
      <path d="M438 -112C382 -132 334 -112 302 -66C270 -18 218 -12 178 26C138 64 92 58 48 12" stroke-width="2.2" opacity="0.72"/>
      <path d="M-438 112C-382 132 -334 112 -302 66C-270 18 -218 12 -178 -26C-138 -64 -92 -58 -48 -12" stroke-width="2.2" opacity="0.72"/>
      <path d="M438 112C382 132 334 112 302 66C270 18 218 12 178 -26C138 -64 92 -58 48 -12" stroke-width="2.2" opacity="0.72"/>

      <path d="M-92 -12C-58 -48 -28 -51 0 -18C28 -51 58 -48 92 -12C58 22 28 22 0 0C-28 22 -58 22 -92 -12Z" stroke-width="3"/>
      <path d="M-92 12C-58 48 -28 51 0 18C28 51 58 48 92 12C58 -22 28 -22 0 0C-28 -22 -58 -22 -92 12Z" stroke-width="3"/>
    </g>

    <g fill="#F4F7F9" opacity="0.86">
      <circle cx="-760" cy="-182" r="5.2"/><circle cx="-704" cy="-170" r="3.2"/><circle cx="-610" cy="-168" r="3.4"/>
      <circle cx="-760" cy="182" r="5.2"/><circle cx="-704" cy="170" r="3.2"/><circle cx="-610" cy="168" r="3.4"/>
      <circle cx="760" cy="-182" r="5.2"/><circle cx="704" cy="-170" r="3.2"/><circle cx="610" cy="-168" r="3.4"/>
      <circle cx="760" cy="182" r="5.2"/><circle cx="704" cy="170" r="3.2"/><circle cx="610" cy="168" r="3.4"/>

      <circle cx="-390" cy="-24" r="4.4"/><circle cx="-322" cy="-8" r="5.2"/><circle cx="-224" cy="-96" r="4.2"/>
      <circle cx="-390" cy="24" r="4.4"/><circle cx="-322" cy="8" r="5.2"/><circle cx="-224" cy="96" r="4.2"/>
      <circle cx="390" cy="-24" r="4.4"/><circle cx="322" cy="-8" r="5.2"/><circle cx="224" cy="-96" r="4.2"/>
      <circle cx="390" cy="24" r="4.4"/><circle cx="322" cy="8" r="5.2"/><circle cx="224" cy="96" r="4.2"/>

      <circle cx="-92" cy="-12" r="3"/><circle cx="0" cy="-18" r="5.4"/><circle cx="92" cy="-12" r="3"/>
      <circle cx="-92" cy="12" r="3"/><circle cx="0" cy="18" r="5.4"/><circle cx="92" cy="12" r="3"/>
    </g>

    <g fill="#C9D1D9" opacity="0.32">
      <circle cx="-642" cy="-40" r="1.1"/><circle cx="-546" cy="-124" r="1.2"/><circle cx="-454" cy="-70" r="1.1"/><circle cx="-346" cy="-144" r="1.2"/>
      <circle cx="-296" cy="142" r="1.1"/><circle cx="-152" cy="62" r="1.1"/><circle cx="-68" cy="-96" r="1.3"/><circle cx="68" cy="-96" r="1.3"/>
      <circle cx="152" cy="62" r="1.1"/><circle cx="296" cy="142" r="1.1"/><circle cx="346" cy="-144" r="1.2"/><circle cx="454" cy="-70" r="1.1"/>
      <circle cx="546" cy="-124" r="1.2"/><circle cx="642" cy="-40" r="1.1"/>
    </g>
  </g>

  <text x="800" y="66" text-anchor="middle" fill="#F6F7F8" filter="url(#textHalo)" font-family="Urbanist, Avenir Next, Helvetica Neue, Arial, sans-serif" font-size="46" font-weight="600">Web Design</text>
  <text x="800" y="398" text-anchor="middle" fill="#E7E0D4" opacity="0.74" font-family="Urbanist, Avenir Next, Helvetica Neue, Arial, sans-serif" font-size="15" font-weight="500">prototype · build · check · retro</text>
</svg>
